<?xml version="1.0" standalone="no"?>
<!DOCTYPE svg PUBLIC "-//W3C//DTD SVG 20010904//EN"
 "http://www.w3.org/TR/2001/REC-SVG-20010904/DTD/svg10.dtd">
<svg version="1.0" xmlns="http://www.w3.org/2000/svg"
 width="2048.000000pt" height="1448.000000pt" viewBox="0 0 2048.000000 1448.000000"
 preserveAspectRatio="xMidYMid meet">

<g transform="translate(0.000000,1448.000000) scale(0.100000,-0.100000)"
fill="#000000" stroke="none">
<path d="M9816 11198 c-3 -79 -7 -293 -10 -475 l-4 -333 94 0 94 0 2 248 c1
136 3 268 3 294 0 52 10 71 18 36 3 -13 29 -148 58 -300 l54 -277 60 -6 c33
-4 84 -5 114 -3 l54 3 63 280 c35 154 64 288 64 297 0 9 5 20 11 24 8 4 9 -80
3 -300 l-7 -306 91 0 91 0 5 33 c3 17 7 231 10 475 l6 442 -129 0 c-115 0
-130 -2 -135 -17 -2 -10 -44 -181 -92 -380 -49 -200 -91 -363 -94 -363 -3 0
-41 173 -84 385 l-79 385 -128 0 -127 0 -6 -142z"/>
<path d="M9445 11259 c-95 -21 -88 -17 -82 -57 5 -31 119 -638 157 -831 5 -30
12 -57 15 -59 5 -5 165 25 172 32 3 2 -2 40 -10 83 -58 299 -157 826 -157 834
0 11 -41 10 -95 -2z"/>
<path d="M8900 11112 c-124 -42 -227 -77 -228 -78 -5 -3 299 -887 307 -895 5
-5 459 146 469 156 2 1 -9 38 -24 82 l-27 79 -121 -42 c-66 -23 -134 -47 -149
-53 -21 -8 -29 -8 -32 2 -51 142 -65 191 -58 197 4 4 59 25 120 46 62 22 113
43 113 47 0 5 -12 42 -26 82 l-26 74 -125 -44 c-82 -28 -126 -39 -128 -32 -2
7 -17 52 -35 101 -17 49 -27 92 -23 96 4 4 72 29 149 54 l142 47 -26 79 c-15
44 -31 80 -37 79 -5 0 -111 -35 -235 -77z"/>
<path d="M11352 11125 c-21 -18 -40 -56 -72 -142 -57 -155 -61 -196 -26 -267
32 -64 70 -100 146 -134 101 -46 106 -59 64 -177 l-26 -73 -88 31 -88 31 24
64 c13 36 24 67 24 71 0 10 -158 64 -168 57 -5 -3 -24 -46 -42 -96 -61 -169
-39 -203 186 -286 127 -47 157 -55 202 -51 76 5 93 27 148 186 38 110 45 142
40 178 -12 88 -71 158 -173 205 -35 15 -69 39 -78 51 -14 22 -13 30 12 102 15
42 33 80 40 82 18 7 163 -47 163 -61 0 -6 -9 -35 -20 -64 -11 -29 -20 -56 -20
-60 0 -12 161 -65 169 -56 4 5 22 48 41 96 39 103 38 154 -5 198 -25 26 -49
37 -243 109 -106 39 -168 41 -210 6z"/>
<path d="M8349 10877 c-31 -17 -64 -37 -74 -43 -20 -13 -25 -2 151 -310 l24
-40 -75 -42 c-41 -23 -78 -42 -83 -42 -4 0 -14 12 -23 28 -79 138 -172 298
-174 300 -5 6 -154 -83 -155 -92 0 -7 72 -134 389 -683 42 -73 81 -132 86
-132 6 0 42 19 82 42 l72 43 -95 163 c-52 91 -94 168 -94 172 0 13 151 92 160
83 5 -5 47 -76 95 -159 48 -82 90 -153 93 -157 4 -4 42 13 85 38 89 51 88 31
1 176 -30 49 -54 90 -54 93 0 2 -48 86 -107 187 -58 101 -117 203 -131 228
-53 96 -105 180 -111 180 -3 0 -31 -15 -62 -33z"/>
<path d="M12018 10727 c-53 -89 -162 -272 -242 -407 -112 -188 -143 -247 -133
-256 6 -5 101 -63 210 -128 150 -90 201 -115 211 -107 21 17 68 110 61 121 -4
6 1 7 12 3 50 -19 -17 28 -131 92 -69 39 -125 74 -126 79 0 10 101 186 107
186 3 0 55 -30 115 -66 87 -53 112 -64 119 -53 5 8 24 41 43 75 l35 60 -109
65 c-60 35 -110 68 -110 73 0 15 101 176 111 176 6 0 65 -34 133 -75 68 -41
126 -75 129 -75 7 0 87 127 87 139 0 7 -135 92 -235 147 -11 6 -49 29 -85 51
-36 22 -74 45 -86 51 -19 10 -27 -1 -116 -151z"/>
<path d="M7665 10429 c-38 -34 -116 -101 -173 -151 -59 -51 -100 -94 -96 -100
5 -7 2 -8 -5 -3 -12 7 -61 -30 -61 -46 0 -4 23 -34 52 -67 l52 -61 35 29 c20
15 50 42 66 59 17 17 33 31 37 31 3 0 113 -122 243 -270 130 -149 241 -268
246 -265 5 4 6 0 3 -8 -3 -8 2 -20 11 -27 13 -11 25 -5 78 40 34 30 66 56 70
60 4 4 -18 36 -49 71 -82 93 -94 107 -258 294 -82 94 -161 183 -175 199 l-26
28 69 63 69 63 -53 61 c-29 34 -56 61 -59 61 -3 0 -37 -28 -76 -61z"/>
<path d="M12669 10388 c-46 -51 -104 -115 -129 -142 -25 -26 -44 -55 -44 -62
1 -8 -2 -12 -6 -9 -5 3 -91 -86 -191 -197 l-182 -201 69 -63 c60 -55 71 -61
81 -47 7 9 52 58 100 111 48 52 92 101 96 108 13 23 30 16 80 -32 71 -69 68
-85 -48 -212 -52 -57 -95 -108 -95 -112 0 -9 120 -120 130 -120 11 0 194 209
213 243 9 17 17 50 17 73 0 41 1 42 41 48 42 7 112 45 126 70 4 8 30 38 58 67
104 110 125 141 125 184 0 70 1 69 -242 288 -59 54 -109 97 -111 97 -3 0 -42
-42 -88 -92z m180 -217 l65 -59 -36 -44 c-87 -103 -115 -128 -146 -128 -16 0
-35 7 -42 15 -7 9 -20 13 -29 10 -8 -3 -12 -3 -8 1 4 4 -6 22 -22 38 l-30 31
86 98 c48 53 89 97 92 97 3 -1 35 -27 70 -59z"/>
<path d="M9970 10144 c-393 -47 -674 -125 -985 -274 -419 -200 -790 -502
-1066 -867 -41 -54 -67 -98 -63 -105 4 -6 3 -8 -4 -4 -21 13 -167 -233 -261
-439 -179 -395 -261 -775 -261 -1215 0 -318 37 -566 127 -860 341 -1112 1332
-1921 2493 -2035 625 -62 1253 78 1785 398 90 53 264 174 322 223 12 11 45 37
72 59 73 59 297 288 368 378 323 404 529 857 612 1347 33 195 44 358 38 574
-15 575 -192 1115 -520 1586 -131 189 -310 387 -473 525 -65 55 -123 99 -131
99 -7 -1 -11 2 -8 6 9 14 -164 135 -330 230 -312 178 -633 291 -1000 351 -105
17 -182 22 -405 24 -151 2 -291 1 -310 -1z m495 -114 c563 -51 1055 -243 1495
-584 130 -100 362 -329 462 -456 74 -94 195 -270 238 -345 399 -702 484 -1522
235 -2277 -77 -234 -190 -467 -333 -683 -36 -55 -69 -102 -72 -105 -3 -3 -33
-39 -66 -82 -149 -188 -331 -363 -533 -511 -790 -582 -1832 -704 -2741 -322
-207 87 -511 268 -656 391 -35 30 -69 52 -74 49 -6 -4 -9 -3 -8 2 2 4 -60 71
-137 148 -385 385 -630 815 -754 1328 -109 449 -106 902 9 1353 211 828 798
1519 1587 1868 412 183 908 266 1348 226z"/>
<path d="M8705 9070 c-74 -67 -135 -128 -135 -137 0 -8 28 -64 63 -123 l62
-108 115 -68 c63 -38 155 -92 204 -121 49 -29 95 -53 102 -53 7 0 166 -172
352 -382 187 -211 472 -532 633 -714 162 -181 344 -386 404 -454 61 -68 118
-132 127 -141 56 -59 51 -88 -29 -152 -89 -71 -95 -79 -101 -136 -5 -52 21
-126 41 -114 6 3 7 1 3 -6 -15 -24 206 -345 387 -561 91 -109 376 -400 392
-399 5 0 4 3 -3 6 -6 2 -10 9 -6 14 3 5 -6 13 -20 19 -14 5 -26 13 -26 17 0 5
-12 22 -28 38 -64 72 -65 74 -53 89 11 13 9 14 -11 11 -18 -4 -29 4 -48 32
-14 20 -30 41 -35 47 -48 51 -165 218 -159 228 4 7 3 8 -5 4 -7 -5 -15 4 -22
23 -6 17 -15 31 -19 31 -8 0 -30 35 -99 154 -13 22 -28 43 -32 44 -5 2 -9 8
-9 12 0 5 -14 33 -31 62 -66 110 -89 163 -89 201 0 34 8 47 61 103 34 35 70
66 80 69 14 5 32 -8 72 -52 83 -92 258 -265 312 -308 27 -22 65 -55 85 -73 49
-47 288 -226 328 -246 18 -9 32 -12 32 -6 0 5 -4 10 -8 10 -9 0 -121 97 -212
185 -107 103 -173 175 -312 340 -47 56 -108 135 -138 180 -19 28 -38 53 -43
56 -4 3 15 26 44 50 29 24 65 55 79 68 43 40 84 68 110 76 16 4 9 -4 -19 -21
l-45 -28 40 -16 c21 -10 80 -57 129 -105 82 -79 212 -197 261 -235 58 -45 133
-99 162 -115 17 -11 32 -23 32 -28 0 -4 5 -5 11 -1 6 3 14 2 18 -3 12 -18 124
-74 138 -69 8 3 12 2 9 -2 -5 -9 63 -46 134 -72 25 -9 54 -20 65 -25 11 -4
-27 24 -85 62 -156 103 -251 175 -387 294 -66 59 -124 106 -127 103 -3 -2 -4
-1 -1 3 3 4 -39 52 -93 107 -53 56 -117 123 -140 149 -24 26 -47 45 -52 42 -6
-3 -7 1 -4 9 4 10 -5 20 -27 31 -52 28 -90 14 -187 -64 -47 -39 -93 -71 -100
-71 -28 0 -69 35 -147 124 -72 83 -380 431 -795 896 -81 91 -258 290 -393 442
l-246 277 -97 233 -98 233 -103 78 c-56 42 -109 77 -117 77 -9 0 -76 -54 -151
-120z m257 -75 c55 -39 58 -43 107 -165 28 -69 51 -133 51 -142 0 -9 -11 -29
-24 -44 -37 -44 -73 -37 -201 38 -104 61 -112 68 -148 131 -22 37 -37 74 -34
81 11 27 168 157 181 149 7 -4 38 -26 68 -48z"/>
<path d="M11860 9120 c-13 -24 -46 -26 -58 -4 -11 20 -32 10 -32 -16 0 -23
-26 -33 -51 -20 -20 11 -22 8 -20 -25 1 -11 -3 -26 -8 -34 -8 -12 -12 -12 -25
-2 -21 18 -39 5 -26 -19 13 -24 -8 -41 -39 -33 -22 5 -23 4 -16 -26 7 -35 -14
-53 -39 -32 -17 14 -29 0 -20 -23 9 -23 -15 -49 -32 -35 -21 17 -36 2 -23 -23
14 -26 -4 -40 -40 -31 -22 5 -23 3 -18 -19 8 -32 -15 -57 -37 -39 -17 14 -29
0 -20 -23 9 -23 -15 -49 -32 -35 -20 17 -36 2 -23 -22 8 -15 7 -24 -2 -35 -10
-13 -14 -12 -29 1 -22 20 -33 6 -25 -28 7 -27 -19 -45 -40 -27 -17 14 -25 2
-19 -30 7 -32 -10 -48 -31 -30 -20 17 -38 3 -25 -19 7 -14 5 -23 -10 -36 -12
-10 -20 -13 -20 -7 0 7 -7 12 -16 12 -12 0 -15 -6 -10 -24 7 -30 -17 -54 -38
-37 -17 14 -29 0 -20 -23 9 -23 -15 -49 -32 -35 -19 15 -36 2 -25 -19 11 -20
-12 -61 -24 -43 -3 6 -13 11 -22 11 -11 0 -14 -6 -10 -22 3 -12 1 -30 -4 -40
-10 -18 -12 -18 -28 -4 -21 19 -33 11 -26 -18 3 -12 1 -27 -4 -35 -8 -12 -12
-12 -25 -2 -21 17 -39 5 -26 -18 13 -25 -13 -62 -31 -43 -20 19 -32 14 -25
-12 7 -30 -17 -54 -37 -37 -18 14 -28 4 -22 -23 3 -12 1 -27 -4 -35 -8 -12
-12 -12 -25 -2 -21 17 -39 5 -26 -18 7 -14 5 -23 -9 -35 -13 -11 -21 -14 -26
-7 -13 22 -26 11 -20 -18 4 -21 2 -30 -11 -35 -9 -3 -22 -2 -29 4 -16 13 -28
-2 -19 -24 9 -23 -15 -49 -32 -35 -19 16 -35 2 -28 -25 6 -25 -19 -55 -31 -36
-12 20 -27 10 -23 -15 6 -31 -16 -53 -35 -36 -18 14 -28 4 -22 -23 3 -12 1
-27 -4 -35 -8 -12 -12 -12 -25 -2 -21 18 -39 5 -26 -19 12 -23 -11 -44 -40
-35 -34 11 -24 -27 17 -66 20 -18 31 -26 24 -17 -11 15 -8 23 27 59 25 25 45
38 53 33 8 -4 10 -3 5 5 -9 14 59 85 73 77 5 -3 8 2 7 12 0 10 6 17 16 16 9
-1 14 4 12 10 -7 17 143 159 157 150 8 -5 9 -3 4 5 -10 17 691 715 707 705 7
-4 8 -3 4 5 -9 15 69 95 84 86 5 -3 7 0 4 8 -6 18 21 41 37 31 8 -4 9 -3 5 5
-10 15 229 255 244 246 6 -4 7 1 3 11 -4 12 -3 15 5 10 7 -4 12 -3 12 2 0 17
42 53 56 48 8 -3 14 0 14 7 0 8 4 6 10 -3 6 -9 10 -10 10 -3 0 13 70 12 105
-2 24 -10 80 -55 68 -55 -4 0 -2 -4 5 -8 7 -5 16 -31 21 -58 8 -51 -1 -92 -26
-129 -7 -11 -349 -356 -760 -767 -661 -661 -748 -745 -760 -730 -7 9 -13 13
-13 8 0 -13 62 -81 74 -81 6 0 11 14 11 30 0 27 3 30 30 30 27 0 30 3 27 27
-4 31 13 45 33 28 12 -10 16 -9 21 3 3 9 3 21 -1 27 -11 18 15 42 31 29 18
-15 36 -1 29 22 -9 27 13 53 31 38 19 -16 36 -2 24 21 -13 24 13 48 34 31 18
-15 30 1 21 28 -7 24 22 51 35 32 12 -20 32 -3 25 20 -9 27 13 53 31 38 19
-16 36 -2 24 21 -13 24 13 48 34 31 18 -15 30 1 21 28 -8 25 20 48 39 32 17
-14 29 0 20 23 -9 23 15 49 32 35 19 -16 36 -2 24 21 -13 24 13 48 34 31 18
-15 30 1 21 28 -8 25 20 48 39 32 17 -14 29 0 20 23 -9 23 15 49 32 35 19 -16
36 -2 24 21 -13 24 13 48 34 31 18 -15 30 1 21 28 -8 25 20 48 39 32 17 -14
29 0 20 23 -9 23 15 49 32 35 19 -16 36 -2 24 21 -13 24 13 48 34 31 18 -15
30 1 21 28 -8 25 20 48 39 32 17 -14 29 0 20 23 -9 23 15 49 32 35 19 -16 36
-2 24 21 -13 24 13 48 34 31 18 -15 30 1 21 28 -8 25 20 48 39 32 17 -14 29 0
20 23 -9 23 15 49 32 35 19 -16 36 -2 24 20 -6 12 -5 22 2 29 15 15 38 15 38
1 0 -5 5 -7 11 -3 6 3 8 16 5 29 -8 29 17 53 38 36 17 -14 29 0 20 23 -9 23
15 49 32 35 19 -16 36 -2 24 21 -13 24 8 41 39 33 21 -5 23 -3 18 18 -8 32 13
60 41 52 16 -4 22 -1 22 10 0 9 -4 19 -10 22 -5 3 -10 17 -10 31 0 17 5 24 20
24 11 0 20 6 20 13 0 7 -9 18 -20 25 -23 14 -27 52 -5 52 8 0 15 7 15 15 0 9
-9 15 -24 15 -28 0 -44 33 -27 54 14 17 3 27 -24 20 -25 -6 -50 18 -42 41 9
21 -12 29 -31 12 -20 -18 -62 -6 -62 18 0 21 -17 19 -30 -5z"/>
<path d="M9020 7705 c-7 -8 -15 -35 -18 -60 -4 -38 -1 -50 18 -70 12 -13 34
-28 48 -33 150 -56 177 -74 206 -144 22 -52 20 -102 -9 -231 -37 -162 -41
-223 -20 -291 23 -73 37 -84 63 -51 20 25 20 28 5 63 -21 49 -20 141 3 222 12
45 18 102 18 186 1 114 0 123 -25 160 -29 43 -105 90 -197 119 -57 19 -77 43
-68 81 8 30 39 32 81 5 31 -19 48 -35 124 -115 24 -25 46 -44 49 -41 8 8 -47
91 -89 134 -73 72 -159 102 -189 66z"/>
<path d="M10300 7492 c0 -4 17 -23 37 -42 21 -19 31 -26 23 -15 -21 28 -60 65
-60 57z"/>
<path d="M8948 7403 c-28 -7 -39 -57 -28 -136 21 -151 144 -804 153 -813 2 -2
22 15 44 39 l41 42 -58 285 c-63 306 -88 456 -77 466 4 4 35 -18 70 -49 l64
-56 34 24 c18 14 41 25 51 25 10 0 18 6 18 13 0 6 3 23 6 37 l7 25 -28 -27
-29 -27 -65 58 c-105 93 -142 110 -203 94z"/>
<path d="M9997 7384 c-4 -4 -4 -16 -2 -28 3 -12 1 -27 -4 -35 -8 -12 -12 -12
-25 -2 -22 19 -39 5 -25 -21 14 -26 -13 -60 -33 -40 -21 21 -30 13 -23 -18 7
-34 -15 -51 -39 -31 -17 14 -29 0 -20 -22 3 -9 -2 -26 -10 -39 -15 -23 -14
-26 32 -69 30 -29 36 -32 15 -9 l-32 35 34 34 c21 21 38 30 46 26 8 -6 10 -4
4 4 -5 8 20 39 70 88 l78 75 -30 29 c-16 16 -32 27 -36 23z"/>
<path d="M10446 7341 c-4 -5 -2 -12 3 -15 5 -4 12 -2 15 3 4 5 2 12 -3 15 -5
4 -12 2 -15 -3z"/>
<path d="M9360 7265 c0 -22 4 -25 38 -25 35 1 36 1 17 16 -45 35 -55 36 -55 9z"/>
<path d="M10126 7245 c4 -8 11 -15 16 -15 6 0 5 6 -2 15 -7 8 -14 15 -16 15
-2 0 -1 -7 2 -15z"/>
<path d="M9707 7146 c-26 -45 -47 -87 -47 -91 0 -5 14 -24 32 -42 30 -31 31
-34 15 -51 -9 -10 -17 -22 -17 -27 0 -5 6 -1 13 9 16 21 47 12 47 -15 0 -25
-26 -35 -45 -19 -9 8 -15 8 -15 2 0 -23 42 -24 66 -1 l24 23 70 -73 c39 -40
70 -76 70 -81 0 -4 -7 -13 -16 -20 -8 -7 -14 -24 -12 -37 3 -22 16 -29 108
-59 l105 -34 81 88 c45 48 77 88 70 90 -6 1 -45 -4 -86 -12 l-75 -15 -103 107
c-199 208 -212 224 -219 281 -3 29 -9 54 -13 56 -4 2 -28 -33 -53 -79z m241
-419 c3 -23 0 -27 -22 -27 -21 0 -26 5 -26 24 0 43 43 46 48 3z"/>
<path d="M9356 7208 c-38 -138 -48 -266 -24 -311 l13 -27 90 114 c93 117 105
126 178 126 27 0 21 6 -54 55 -77 50 -89 55 -142 55 -38 0 -59 -4 -61 -12z"/>
<path d="M10150 7216 c0 -2 8 -10 18 -17 15 -13 16 -12 3 4 -13 16 -21 21 -21
13z"/>
<path d="M9227 7178 c-4 -18 -9 -62 -12 -98 l-5 -65 20 90 c23 104 23 105 11
105 -5 0 -11 -15 -14 -32z"/>
<path d="M9179 7164 c-11 -14 -24 -52 -14 -42 2 1 3 6 2 9 -1 4 7 16 17 28 11
12 17 21 14 21 -3 0 -12 -7 -19 -16z"/>
<path d="M10198 7168 c8 -9 11 -22 8 -27 -4 -5 -3 -12 2 -15 16 -10 10 33 -6
46 -15 12 -16 11 -4 -4z"/>
<path d="M9093 7101 c-13 -11 -23 -22 -23 -25 0 -10 39 18 44 31 7 17 6 16
-21 -6z"/>
<path d="M9183 7070 c0 -25 2 -35 4 -22 2 12 2 32 0 45 -2 12 -4 2 -4 -23z"/>
<path d="M9605 7080 c-3 -6 1 -7 10 -4 11 5 14 2 9 -12 -5 -15 -4 -16 4 -4 11
15 7 30 -8 30 -5 0 -12 -4 -15 -10z"/>
<path d="M10259 7073 c-13 -16 -12 -17 4 -4 9 7 17 9 17 4 0 -5 -49 -58 -110
-119 -94 -94 -107 -111 -95 -123 11 -12 17 -12 29 -1 12 9 19 10 30 1 18 -15
30 1 21 28 -8 25 20 48 39 32 17 -14 29 0 20 23 -9 23 15 49 32 35 19 -16 36
-2 24 21 -13 24 13 48 34 31 10 -8 16 -9 21 -1 9 15 -2 44 -29 69 -22 21 -24
21 -37 4z"/>
<path d="M9530 7065 c-8 -9 -8 -15 -2 -15 6 0 12 6 15 13 3 8 10 6 21 -8 17
-20 17 -20 6 3 -13 26 -23 28 -40 7z"/>
<path d="M9636 7027 c3 -10 9 -15 12 -12 3 3 0 11 -7 18 -10 9 -11 8 -5 -6z"/>
<path d="M9986 7027 c3 -10 9 -15 12 -12 3 3 0 11 -7 18 -10 9 -11 8 -5 -6z"/>
<path d="M9911 7009 c13 -25 22 -29 36 -14 14 16 -1 32 -29 32 -13 0 -15 -4
-7 -18z m29 1 c0 -5 -4 -10 -10 -10 -5 0 -10 5 -10 10 0 6 5 10 10 10 6 0 10
-4 10 -10z"/>
<path d="M9091 6994 c0 -11 3 -14 6 -6 3 7 2 16 -1 19 -3 4 -6 -2 -5 -13z"/>
<path d="M9171 6994 c0 -11 3 -14 6 -6 3 7 2 16 -1 19 -3 4 -6 -2 -5 -13z"/>
<path d="M9187 6837 c-10 -93 -17 -171 -14 -173 2 -2 25 22 50 54 l46 59 -25
50 c-14 27 -28 78 -32 114 -7 62 -8 59 -25 -104z"/>
<path d="M8927 6973 c-2 -5 2 -19 9 -33 l14 -25 0 27 c0 26 -15 46 -23 31z"/>
<path d="M9616 6972 c-2 -4 4 -8 14 -8 10 0 16 4 14 8 -3 4 -9 8 -14 8 -5 0
-11 -4 -14 -8z"/>
<path d="M9101 6934 c0 -11 3 -14 6 -6 3 7 2 16 -1 19 -3 4 -6 -2 -5 -13z"/>
<path d="M8910 6920 c0 -5 5 -10 11 -10 5 0 7 5 4 10 -3 6 -8 10 -11 10 -2 0
-4 -4 -4 -10z"/>
<path d="M10040 6916 c0 -2 8 -10 18 -17 15 -13 16 -12 3 4 -13 16 -21 21 -21
13z"/>
<path d="M8951 6894 c0 -11 3 -14 6 -6 3 7 2 16 -1 19 -3 4 -6 -2 -5 -13z"/>
<path d="M9111 6894 c0 -11 3 -14 6 -6 3 7 2 16 -1 19 -3 4 -6 -2 -5 -13z"/>
<path d="M9161 6894 c0 -11 3 -14 6 -6 3 7 2 16 -1 19 -3 4 -6 -2 -5 -13z"/>
<path d="M9406 6897 c3 -10 9 -15 12 -12 3 3 0 11 -7 18 -10 9 -11 8 -5 -6z"/>
<path d="M10020 6901 c0 -6 4 -13 10 -16 6 -3 7 1 4 9 -7 18 -14 21 -14 7z"/>
<path d="M9761 6887 c-8 -10 -7 -14 2 -14 8 0 14 6 14 14 0 7 -1 13 -2 13 -2
0 -8 -6 -14 -13z"/>
<path d="M9377 6870 c-9 -11 -13 -20 -7 -20 5 0 14 9 20 20 6 11 9 20 8 20 -2
0 -11 -9 -21 -20z"/>
<path d="M9802 6860 c7 -11 19 -22 28 -25 8 -4 4 5 -9 19 -29 31 -36 33 -19 6z"/>
<path d="M9122 6840 c0 -14 2 -19 5 -12 2 6 2 18 0 25 -3 6 -5 1 -5 -13z"/>
<path d="M9152 6810 c0 -19 2 -27 5 -17 2 9 2 25 0 35 -3 9 -5 1 -5 -18z"/>
<path d="M8690 6789 c-19 -17 -26 -26 -15 -21 18 9 64 52 54 52 -2 0 -20 -14
-39 -31z"/>
<path d="M8970 6784 c0 -10 5 -26 10 -34 8 -11 9 -7 4 15 -8 37 -14 45 -14 19z"/>
<path d="M9307 6783 c-4 -3 -7 -11 -7 -17 0 -6 5 -5 12 2 6 6 9 14 7 17 -3 3
-9 2 -12 -2z"/>
<path d="M9850 6787 c0 -2 6 -10 14 -16 11 -9 16 -9 22 1 4 7 4 10 -1 6 -4 -4
-14 -3 -22 3 -7 6 -13 9 -13 6z"/>
<path d="M8621 6740 c-13 -11 -19 -20 -14 -20 6 0 18 9 28 20 23 25 17 25 -14
0z"/>
<path d="M9142 6740 c0 -14 2 -19 5 -12 2 6 2 18 0 25 -3 6 -5 1 -5 -13z"/>
<path d="M9853 6732 c-1 -22 0 -24 9 -8 6 10 6 22 2 26 -5 5 -10 -3 -11 -18z"/>
<path d="M9239 6703 c-12 -16 -12 -17 2 -6 9 7 20 9 24 5 5 -4 5 -1 1 6 -9 16
-11 15 -27 -5z"/>
<path d="M8580 6700 c-9 -6 -10 -10 -3 -10 6 0 15 5 18 10 8 12 4 12 -15 0z"/>
<path d="M8992 6680 c0 -14 2 -19 5 -12 2 6 2 18 0 25 -3 6 -5 1 -5 -13z"/>
<path d="M9245 6679 c-4 -6 -4 -13 -1 -16 3 -4 6 -1 6 6 0 7 5 9 12 5 7 -4 8
-3 4 4 -9 15 -13 15 -21 1z"/>
<path d="M8509 6653 c-13 -16 -12 -17 4 -4 9 7 17 15 17 17 0 8 -8 3 -21 -13z"/>
<path d="M9202 6658 c-7 -7 -12 -17 -12 -22 0 -6 5 -3 11 7 6 9 15 14 21 11 7
-4 8 -2 4 4 -9 15 -9 15 -24 0z"/>
<path d="M9794 6490 c-90 -123 -156 -201 -219 -260 -49 -46 -122 -114 -162
-152 -44 -43 -104 -86 -154 -114 -45 -24 -83 -43 -84 -41 -2 1 -21 54 -44 117
l-42 116 31 163 c16 90 29 166 27 168 -2 2 -26 -20 -54 -49 -48 -52 -50 -56
-71 -163 l-22 -111 30 -82 c16 -45 30 -90 30 -99 0 -9 -12 -30 -27 -45 l-27
-28 21 -72 c17 -58 19 -75 9 -89 -19 -28 -238 -281 -265 -306 -28 -27 -60 -29
-101 -8 -32 17 -80 90 -80 122 0 27 40 182 92 356 40 132 42 137 68 137 15 0
41 3 58 6 l30 6 -39 35 -39 35 -82 -7 c-46 -4 -86 -9 -91 -12 -4 -2 3 -13 15
-23 17 -13 20 -21 11 -31 -11 -15 -123 -223 -123 -231 0 -2 16 -2 35 0 19 2
35 1 35 -2 0 -3 -9 -39 -20 -79 -27 -95 -36 -213 -21 -260 7 -20 33 -58 59
-86 59 -62 111 -80 180 -63 43 11 69 34 300 269 219 224 252 261 252 288 0 42
87 130 119 120 17 -5 45 18 158 127 392 379 423 411 423 437 0 51 -10 67 -49
77 l-37 10 -130 -176z"/>
<path d="M9001 6634 c0 -11 3 -14 6 -6 3 7 2 16 -1 19 -3 4 -6 -2 -5 -13z"/>
<path d="M8443 6602 c-25 -22 -29 -31 -22 -47 9 -19 9 -18 5 2 -3 17 3 27 25
40 16 10 29 21 29 25 0 11 -1 11 -37 -20z"/>
<path d="M9830 6595 c-13 -14 -22 -27 -19 -29 2 -2 14 10 27 25 29 36 24 38
-8 4z"/>
<path d="M9011 6584 c0 -11 3 -14 6 -6 3 7 2 16 -1 19 -3 4 -6 -2 -5 -13z"/>
<path d="M8463 6575 c0 -8 4 -12 9 -9 5 3 6 10 3 15 -9 13 -12 11 -12 -6z"/>
<path d="M9171 6585 c0 -5 6 -21 14 -35 8 -14 14 -20 14 -15 0 6 -6 21 -14 35
-8 14 -14 21 -14 15z"/>
<path d="M9767 6549 c7 -7 15 -10 18 -7 3 3 -2 9 -12 12 -14 6 -15 5 -6 -5z"/>
<path d="M9021 6524 c0 -11 3 -14 6 -6 3 7 2 16 -1 19 -3 4 -6 -2 -5 -13z"/>
<path d="M9766 6517 c3 -10 9 -15 12 -12 3 3 0 11 -7 18 -10 9 -11 8 -5 -6z"/>
<path d="M9176 6495 c-3 -9 -5 -29 -5 -43 1 -20 3 -17 9 13 8 43 7 57 -4 30z"/>
<path d="M9031 6484 c0 -11 3 -14 6 -6 3 7 2 16 -1 19 -3 4 -6 -2 -5 -13z"/>
<path d="M9710 6462 c10 -20 8 -28 -12 -50 l-23 -27 23 20 c13 11 29 29 34 40
6 11 7 17 3 13 -4 -4 -14 0 -22 10 -13 15 -13 14 -3 -6z"/>
<path d="M8465 6420 c-3 -5 -2 -18 4 -27 7 -14 9 -12 8 10 -2 30 -3 31 -12 17z"/>
<path d="M9161 6405 c-1 -11 -4 -31 -6 -45 l-6 -25 11 25 c6 13 9 33 7 45 -4
19 -4 19 -6 0z"/>
<path d="M9011 6384 c0 -11 3 -14 6 -6 3 7 2 16 -1 19 -3 4 -6 -2 -5 -13z"/>
<path d="M9630 6396 c0 -2 7 -7 16 -10 8 -3 12 -2 9 4 -6 10 -25 14 -25 6z"/>
<path d="M9607 6355 c-4 -9 -3 -13 3 -10 6 3 10 0 10 -7 0 -8 5 -6 11 5 6 10
8 21 5 24 -3 4 -6 0 -6 -8 0 -11 -2 -12 -9 -1 -7 11 -9 10 -14 -3z"/>
<path d="M9001 6344 c0 -11 3 -14 6 -6 3 7 2 16 -1 19 -3 4 -6 -2 -5 -13z"/>
<path d="M9585 6309 c-5 -8 -4 -10 3 -5 7 4 12 3 12 -3 0 -6 -9 -15 -20 -21
-11 -6 -20 -15 -20 -21 0 -5 12 2 27 15 20 19 24 29 16 37 -8 8 -13 7 -18 -2z"/>
<path d="M8991 6293 c-1 -6 -4 -20 -7 -30 -5 -17 -5 -17 6 0 6 10 9 23 6 30
-3 9 -5 9 -5 0z"/>
<path d="M9141 6284 c0 -11 3 -14 6 -6 3 7 2 16 -1 19 -3 4 -6 -2 -5 -13z"/>
<path d="M9130 6251 c0 -6 4 -13 10 -16 6 -3 7 1 4 9 -7 18 -14 21 -14 7z"/>
<path d="M8971 6204 c0 -11 3 -14 6 -6 3 7 2 16 -1 19 -3 4 -6 -2 -5 -13z"/>
<path d="M9121 6194 c0 -11 3 -14 6 -6 3 7 2 16 -1 19 -3 4 -6 -2 -5 -13z"/>
<path d="M9476 6188 c3 -5 10 -6 15 -3 13 9 11 12 -6 12 -8 0 -12 -4 -9 -9z"/>
<path d="M9447 6176 c-3 -8 -2 -18 3 -21 13 -8 20 9 11 24 -6 10 -10 9 -14 -3z"/>
<path d="M8678 6153 c6 -2 18 -2 25 0 6 3 1 5 -13 5 -14 0 -19 -2 -12 -5z"/>
<path d="M8780 6157 c0 -2 15 -16 33 -33 l32 -29 -29 33 c-28 30 -36 37 -36
29z"/>
<path d="M9125 6149 c-4 -6 -5 -12 -2 -15 2 -3 7 2 10 11 7 17 1 20 -8 4z"/>
<path d="M12085 6148 c5 -11 55 -42 55 -33 0 2 -13 13 -30 25 -17 12 -28 15
-25 8z"/>
<path d="M8970 6145 c0 -5 5 -17 10 -25 5 -8 10 -10 10 -5 0 6 -5 17 -10 25
-5 8 -10 11 -10 5z"/>
<path d="M9409 6120 c-13 -10 -19 -19 -13 -20 6 0 19 9 29 20 23 26 14 26 -16
0z"/>
<path d="M12140 6089 c0 -5 -4 -8 -8 -5 -5 3 -9 -1 -9 -8 0 -20 23 -15 24 6 1
10 0 18 -3 18 -2 0 -4 -5 -4 -11z"/>
<path d="M8882 6072 c-9 -6 -5 -15 15 -33 23 -20 25 -20 9 -2 -10 12 -15 27
-11 32 7 13 4 14 -13 3z"/>
<path d="M9290 6065 c-11 -13 -10 -14 6 -8 17 6 18 5 4 -13 -14 -17 -14 -18 2
-6 9 8 14 20 11 28 -6 18 -8 17 -23 -1z"/>
<path d="M9324 6038 l-19 -23 23 19 c21 18 27 26 19 26 -2 0 -12 -10 -23 -22z"/>
<path d="M12119 6033 c-13 -16 -12 -17 4 -4 9 7 17 15 17 17 0 8 -8 3 -21 -13z"/>
<path d="M8944 5992 c23 -26 23 -26 23 -7 0 8 -3 13 -5 10 -3 -3 -12 1 -21 7
-10 8 -9 4 3 -10z"/>
<path d="M9178 6004 c-11 -10 4 -44 19 -44 12 0 12 3 -1 16 -9 8 -14 20 -11
25 7 10 2 12 -7 3z"/>
<path d="M12084 5988 l-19 -23 23 19 c21 18 27 26 19 26 -2 0 -12 -10 -23 -22z"/>
<path d="M9234 5984 c-18 -14 -18 -15 4 -4 12 6 22 13 22 15 0 8 -5 6 -26 -11z"/>
<path d="M8981 5963 c-2 -20 16 -24 30 -5 13 15 12 16 -3 4 -13 -10 -17 -10
-21 0 -4 9 -6 9 -6 1z"/>
<path d="M11966 5843 c-6 -14 -5 -15 5 -6 7 7 10 15 7 18 -3 3 -9 -2 -12 -12z"/>
<path d="M11931 5797 c-13 -21 -12 -21 5 -5 10 10 16 20 13 22 -3 3 -11 -5
-18 -17z"/>
<path d="M11890 5749 c0 -5 -5 -7 -12 -3 -7 4 -8 3 -4 -5 6 -9 11 -9 22 0 17
14 18 19 4 19 -5 0 -10 -5 -10 -11z"/>
<path d="M11762 5608 c2 -7 -3 -12 -10 -10 -8 1 -10 -2 -7 -8 8 -13 -24 -52
-36 -44 -5 3 -6 -2 -3 -10 5 -12 10 -10 28 12 46 57 47 60 36 67 -6 4 -9 1 -8
-7z"/>
<path d="M11619 5503 c-13 -16 -12 -17 4 -4 9 7 17 15 17 17 0 8 -8 3 -21 -13z"/>
<path d="M11679 5493 c-13 -16 -12 -17 4 -4 9 7 17 15 17 17 0 8 -8 3 -21 -13z"/>
<path d="M11626 5430 c-14 -22 -25 -40 -22 -40 7 0 58 71 53 76 -2 2 -16 -14
-31 -36z"/>
<path d="M11346 5387 c3 -10 9 -15 12 -12 3 3 0 11 -7 18 -10 9 -11 8 -5 -6z"/>
<path d="M11575 5380 c-3 -5 -1 -10 4 -10 6 0 11 5 11 10 0 6 -2 10 -4 10 -3
0 -8 -4 -11 -10z"/>
<path d="M11380 5353 c0 -5 13 -17 28 -27 l27 -19 -24 26 c-26 28 -31 32 -31
20z"/>
<path d="M11538 5329 c-10 -10 -14 -19 -10 -19 5 0 17 9 27 20 10 11 14 20 9
19 -5 0 -17 -9 -26 -20z"/>
<path d="M11448 5303 c7 -3 16 -2 19 1 4 3 -2 6 -13 5 -11 0 -14 -3 -6 -6z"/>
<path d="M13005 9579 c-176 -193 -319 -356 -317 -361 5 -20 137 -187 147 -188
6 0 48 19 95 41 47 23 191 92 320 154 483 231 453 215 435 239 -8 11 -26 37
-40 56 -57 81 -41 80 -167 17 -102 -51 -264 -138 -479 -255 -42 -23 -80 -42
-85 -42 -5 0 72 80 171 178 99 98 221 220 272 273 l92 95 -52 71 c-29 40 -56
72 -62 72 -5 0 -154 -158 -330 -350z"/>
<path d="M7111 9874 c-50 -42 -203 -243 -195 -256 4 -7 3 -8 -4 -4 -16 10 -32
-34 -32 -86 0 -36 6 -47 44 -83 76 -71 189 -152 230 -165 46 -15 122 -8 168
16 18 9 63 45 100 80 36 35 75 64 85 64 19 0 153 -96 153 -110 0 -10 -101
-140 -109 -140 -3 0 -28 18 -56 40 -27 22 -53 40 -57 40 -7 0 -97 -115 -104
-135 -3 -7 32 -41 82 -79 77 -59 91 -66 132 -66 60 0 91 25 191 154 104 135
121 164 121 206 0 54 -28 89 -138 172 -113 86 -154 103 -223 95 -67 -8 -115
-36 -186 -106 -33 -34 -70 -61 -81 -61 -19 0 -152 96 -152 110 0 11 100 140
108 140 4 0 30 -18 57 -40 28 -22 52 -40 56 -40 7 0 113 140 108 144 -2 2 -42
34 -88 70 -77 60 -88 66 -132 66 -37 0 -55 -6 -78 -26z"/>
<path d="M6580 9081 l-109 -219 42 -25 c23 -13 214 -110 424 -216 l383 -191
110 220 c60 121 110 222 110 225 0 5 -135 75 -145 75 -3 0 -36 -63 -75 -140
l-70 -140 -95 47 c-52 26 -95 51 -95 55 0 5 25 58 55 118 30 60 55 112 55 114
0 6 -152 78 -155 74 -1 -2 -26 -50 -55 -108 -28 -58 -55 -109 -60 -113 -4 -5
-48 13 -98 40 -78 41 -91 51 -86 68 4 11 35 75 70 143 l64 122 -72 35 c-39 19
-75 35 -80 35 -4 0 -57 -99 -118 -219z"/>
<path d="M13775 9242 c-6 -5 -64 -37 -130 -72 -120 -63 -389 -204 -582 -306
l-102 -54 44 -78 c25 -43 50 -76 57 -74 15 4 809 421 820 431 10 9 -67 155
-84 159 -7 1 -18 -1 -23 -6z"/>
<path d="M13790 8805 c-52 -18 -205 -72 -340 -120 -347 -122 -345 -119 -255
-380 49 -140 63 -170 92 -195 49 -43 67 -43 206 3 53 17 95 36 93 42 -2 5 -16
45 -31 87 l-26 76 -70 -23 c-51 -18 -71 -21 -74 -12 -3 7 -16 45 -30 85 -15
41 -25 75 -23 77 3 4 159 59 435 156 62 21 119 39 126 39 11 0 68 -136 67
-161 0 -4 -28 -16 -62 -29 -35 -12 -65 -24 -67 -26 -2 -2 41 -138 55 -172 0
-1 45 14 100 33 183 66 193 96 110 331 -84 239 -115 258 -306 189z"/>
<path d="M6335 8571 c-8 -28 -35 -164 -33 -165 30 -17 450 -166 625 -222 51
-16 93 -33 93 -37 0 -4 -26 -5 -57 -2 -32 3 -182 12 -333 20 -151 8 -298 17
-326 20 l-50 5 -24 -115 c-12 -64 -21 -117 -19 -119 2 -2 67 -27 144 -56 395
-145 574 -214 571 -217 -2 -3 -107 5 -233 16 -256 23 -526 41 -532 36 -2 -2
-9 -35 -17 -72 -8 -37 -16 -77 -19 -89 -5 -20 -1 -21 203 -27 114 -4 330 -12
481 -17 150 -6 274 -10 276 -8 2 2 14 56 28 121 l25 118 -22 9 c-51 20 -583
227 -600 234 -10 3 -17 9 -14 12 3 3 157 -2 343 -11 186 -9 339 -14 340 -13 5
5 45 210 45 228 0 13 -25 27 -92 53 -51 19 -252 98 -445 175 -293 115 -353
136 -358 123z"/>
<path d="M14040 8075 c-80 -13 -272 -42 -427 -66 -155 -23 -287 -45 -293 -49
-9 -5 -2 -74 25 -246 20 -131 38 -240 39 -242 9 -9 166 21 165 32 0 6 -10 76
-23 154 -15 99 -19 145 -12 148 20 7 200 33 204 30 1 -2 12 -59 22 -126 10
-67 21 -124 23 -126 3 -4 158 16 164 20 1 1 -7 58 -17 126 -10 69 -15 128 -12
132 10 9 202 36 207 29 2 -4 13 -72 25 -151 12 -80 24 -148 26 -151 4 -7 153
17 162 25 4 5 -29 237 -60 424 -10 61 -11 62 -42 61 -17 -1 -96 -11 -176 -24z"/>
<path d="M6920 7103 c0 -32 5 -107 10 -168 71 -761 391 -1457 920 -1999 277
-285 566 -499 899 -665 45 -23 84 -41 85 -39 1 2 7 15 14 31 12 27 11 27 -78
72 -738 370 -1319 1030 -1601 1817 -102 284 -157 560 -185 926 l-6 82 -29 0
c-29 0 -29 -1 -29 -57z"/>
<path d="M13496 7148 c-3 -7 -7 -65 -10 -128 -24 -479 -187 -1006 -444 -1435
-320 -533 -752 -942 -1304 -1235 -65 -34 -118 -64 -118 -67 0 -4 20 -45 25
-51 5 -6 189 90 289 150 270 163 479 330 696 554 145 151 274 309 264 325 -4
7 -3 9 4 5 12 -7 95 107 188 261 277 462 437 978 470 1521 l7 112 -32 0 c-17
0 -33 -6 -35 -12z"/>
<path d="M13142 4694 c-43 -30 -16 -104 39 -104 23 0 49 32 49 61 0 17 -10 30
-29 42 -35 21 -32 20 -59 1z"/>
<path d="M7370 4623 c-47 -17 -65 -67 -34 -97 36 -37 99 -3 92 49 -3 30 -35
56 -58 48z"/>
<path d="M11369 4301 c-33 -26 -29 -67 21 -191 49 -123 70 -150 117 -150 39 0
83 37 83 70 0 31 -71 210 -81 204 -5 -3 -6 2 -3 10 3 8 -4 29 -16 46 -17 24
-28 30 -60 30 -22 0 -47 -8 -61 -19z m123 -141 c52 -127 56 -145 31 -154 -26
-10 -41 12 -88 130 -33 83 -41 112 -34 127 21 38 43 13 91 -103z"/>
<path d="M11168 4232 c-26 -9 -49 -20 -53 -23 -3 -4 6 -45 20 -92 23 -72 30
-84 45 -80 10 3 20 15 22 26 2 12 10 23 20 25 12 2 22 -12 37 -51 28 -77 31
-110 8 -115 -13 -3 -22 6 -30 27 -9 25 -16 30 -32 25 -11 -4 -21 -8 -23 -9 -7
-6 26 -71 41 -84 20 -16 79 -8 97 14 29 35 -21 213 -64 233 -18 8 -29 7 -45
-4 -20 -14 -22 -13 -31 11 -16 43 -12 54 25 61 28 5 35 11 35 30 0 28 -8 28
-72 6z"/>
<path d="M9195 4139 c-78 -113 -99 -148 -92 -156 3 -3 23 -11 44 -18 23 -8 36
-19 34 -27 -17 -55 21 -83 40 -29 6 18 16 28 23 25 19 -7 30 28 13 38 -12 6
-8 28 25 129 33 99 38 123 27 130 -30 19 -46 5 -114 -92z m34 -61 c-16 -45
-29 -84 -29 -86 0 -3 -42 8 -48 13 -8 7 91 153 104 155 1 0 -12 -37 -27 -82z"/>
<path d="M9407 4180 c-6 -24 -2 -27 52 -36 50 -8 50 -4 -22 -123 -49 -78 -87
-158 -87 -180 0 -5 11 -11 24 -13 22 -4 27 1 47 51 13 31 48 99 80 152 32 52
59 104 61 114 2 15 -9 22 -67 36 -87 23 -82 23 -88 -1z"/>
<path d="M8980 4160 c-9 -16 -15 -18 -30 -10 -28 15 -38 -9 -12 -29 16 -12 19
-20 12 -31 -15 -23 -12 -30 10 -30 14 0 20 7 20 21 0 13 5 19 13 16 47 -19 47
-19 47 2 0 13 -6 21 -16 21 -13 0 -15 7 -10 30 7 36 -17 42 -34 10z"/>
<path d="M10923 4170 c-50 -20 -53 -57 -17 -207 35 -152 57 -177 128 -153 57
19 63 50 32 184 -14 63 -30 125 -35 139 -16 42 -59 57 -108 37z m61 -56 c16
-41 56 -239 52 -251 -4 -8 -16 -13 -28 -11 -20 3 -26 16 -50 108 -14 58 -26
120 -27 138 -1 27 2 32 23 32 13 0 27 -7 30 -16z"/>
<path d="M10702 4127 c-66 -9 -73 -12 -70 -31 3 -19 8 -21 56 -18 28 2 52 2
52 0 0 -1 -6 -37 -14 -78 -18 -94 -30 -225 -22 -238 3 -5 17 -7 31 -4 24 4 25
7 25 82 0 43 7 114 15 157 16 85 19 144 8 142 -5 -1 -41 -6 -81 -12z"/>
<path d="M9762 4099 c-31 -33 -43 -150 -19 -182 6 -10 27 -18 44 -20 28 -2 33
-6 33 -29 0 -39 -17 -78 -34 -78 -17 0 -29 31 -20 54 5 12 0 16 -20 16 -24 0
-26 -4 -26 -39 0 -48 21 -71 63 -71 59 0 74 26 93 159 19 133 18 174 -4 194
-26 24 -87 22 -110 -4z m71 -88 c-2 -68 -12 -88 -39 -77 -14 5 -16 16 -11 66
6 68 12 82 35 78 14 -3 17 -15 15 -67z"/>
<path d="M10450 4101 c-28 -8 -50 -43 -50 -82 0 -22 4 -26 24 -22 18 4 26 13
28 32 2 18 10 27 25 29 18 3 23 -3 28 -32 9 -44 -1 -73 -26 -81 -25 -8 -25
-35 1 -35 27 0 42 -33 38 -88 -3 -40 -6 -47 -25 -50 -19 -3 -23 3 -29 38 -6
34 -10 41 -28 38 -18 -3 -20 -9 -18 -38 4 -42 24 -76 49 -82 34 -9 83 11 93
38 20 51 8 135 -22 155 -4 3 -1 20 8 38 38 77 -20 163 -96 142z"/>
<path d="M10067 4093 c-13 -21 -97 -259 -97 -274 0 -13 11 -19 45 -25 43 -6
45 -8 45 -40 0 -27 4 -34 20 -34 16 0 20 7 20 31 0 21 6 32 18 36 22 5 27 43
5 43 -13 0 -14 16 -8 130 5 87 4 130 -3 130 -6 0 -17 3 -25 6 -8 3 -17 2 -20
-3z m1 -170 c-4 -87 -4 -88 -31 -91 -15 -2 -27 0 -27 3 0 14 53 175 57 175 3
0 3 -39 1 -87z"/>
<path d="M10254 4075 c-3 -8 -14 -17 -25 -20 -10 -4 -19 -15 -19 -26 0 -15 5
-19 19 -14 15 5 19 -2 25 -41 3 -26 6 -93 6 -150 l0 -104 25 0 25 0 0 124 c0
67 -3 151 -6 185 -6 51 -10 61 -26 61 -10 0 -21 -7 -24 -15z"/>
<path d="M9791 3394 c-14 -10 -21 -26 -21 -48 0 -39 15 -56 50 -56 35 0 50 17
50 56 0 47 -42 73 -79 48z"/>
</g>
</svg>
