<?xml version="1.0" standalone="no"?>
<!DOCTYPE svg PUBLIC "-//W3C//DTD SVG 20010904//EN"
 "http://www.w3.org/TR/2001/REC-SVG-20010904/DTD/svg10.dtd">
<svg version="1.0" xmlns="http://www.w3.org/2000/svg"
 width="623.000000pt" height="623.000000pt" viewBox="0 0 623.000000 623.000000"
 preserveAspectRatio="xMidYMid meet">
<metadata>
Created by potrace 1.16, written by Peter Selinger 2001-2019
</metadata>
<g transform="translate(0.000000,623.000000) scale(0.100000,-0.100000)"
fill="#000000" stroke="none">
<path d="M3421 5753 c-7 -8 -22 -12 -35 -9 -17 4 -21 0 -22 -20 -2 -20 2 -24
15 -19 13 5 14 4 4 -6 -9 -9 -16 -10 -24 -2 -11 11 -49 6 -49 -7 0 -5 6 -11
13 -13 9 -4 9 -6 0 -6 -6 -1 -15 4 -18 9 -3 6 -11 10 -17 10 -6 0 -5 -7 3 -17
13 -15 12 -15 -8 -5 -12 7 -29 9 -37 6 -10 -4 -16 -1 -16 9 0 35 -198 73 -328
63 -89 -7 -149 -26 -158 -51 -4 -8 -1 -28 5 -43 6 -15 14 -49 17 -77 10 -97
19 -130 34 -130 17 0 17 8 1 107 -11 70 -7 98 14 98 13 0 25 -51 25 -112 0
-35 2 -38 28 -38 15 0 37 -7 48 -14 12 -8 30 -15 40 -15 10 1 36 -3 57 -7 70
-13 225 40 212 73 -4 12 61 31 71 20 9 -8 -53 -120 -81 -146 -24 -22 -35 -49
-15 -36 16 10 12 -5 -11 -36 -11 -16 -17 -29 -12 -29 16 0 56 72 44 79 -7 5
-2 16 15 32 14 13 35 43 46 67 11 23 23 40 26 37 3 -3 0 -11 -6 -17 -18 -18
-15 -41 4 -34 12 4 15 2 10 -9 -7 -19 8 -19 24 0 10 12 9 20 -4 40 -9 14 -12
25 -7 25 5 0 12 -6 14 -12 4 -9 12 -5 26 12 21 25 29 18 11 -10 -9 -14 3 -29
23 -30 13 0 3 62 -10 67 -23 9 -14 31 22 59 32 24 35 31 35 78 0 62 -9 80 -29
59z"/>
<path d="M3235 5316 c-66 -35 -155 -82 -198 -104 -54 -29 -89 -42 -115 -41
-35 1 -36 2 -8 8 36 7 47 30 14 27 -13 -2 -32 -8 -44 -14 -11 -6 -26 -7 -33
-3 -17 11 -92 -4 -140 -29 -22 -11 -46 -20 -54 -20 -18 0 -73 -60 -82 -90 -12
-40 -45 -80 -66 -80 -13 0 -25 -11 -34 -32 -7 -18 -46 -62 -85 -97 -39 -35
-75 -74 -80 -87 -6 -14 -33 -35 -72 -54 -35 -17 -72 -40 -84 -51 -12 -12 -35
-19 -57 -19 -46 0 -96 -20 -121 -49 -11 -11 -29 -21 -40 -21 -39 -1 -101 -38
-171 -105 -54 -52 -62 -62 -34 -46 44 25 64 26 114 5 23 -9 52 -13 74 -10 l36
5 -28 -13 c-16 -7 -34 -23 -41 -37 -6 -13 -19 -24 -27 -24 -9 0 -24 -6 -33
-14 -14 -12 -16 -11 -16 3 0 10 -5 14 -11 10 -7 -4 -9 -23 -5 -50 5 -36 3 -42
-10 -37 -8 3 -13 12 -10 19 3 8 -1 14 -10 14 -14 0 -14 2 0 16 37 36 4 83 -34
49 -19 -17 -20 -17 -20 1 -1 16 -5 14 -25 -11 -21 -25 -25 -27 -25 -11 0 16
-6 13 -31 -15 l-30 -34 23 -6 c13 -3 28 -2 34 2 5 5 19 6 31 3 11 -3 24 -1 27
5 10 16 26 14 26 -3 0 -8 3 -16 8 -18 4 -1 15 -18 24 -35 21 -41 3 -44 -20 -3
-20 35 -23 36 -39 11 -9 -15 -9 -23 3 -37 14 -18 15 -17 9 9 -4 19 -2 26 5 22
5 -3 10 -15 10 -25 0 -22 -22 -39 -28 -22 -6 18 -23 14 -20 -4 2 -10 -3 -19
-9 -21 -7 -3 -13 0 -13 6 0 7 -6 8 -17 2 -10 -5 -47 -17 -83 -26 -36 -10 -71
-19 -77 -21 -18 -5 -16 -33 2 -40 8 -4 21 -1 29 5 8 7 30 13 48 15 19 2 40 6
45 9 6 4 41 14 78 22 49 12 70 13 75 5 5 -8 20 -8 55 0 26 6 48 9 49 8 1 -2 7
-15 14 -31 11 -25 14 -26 34 -15 13 7 26 17 29 22 9 11 29 -2 29 -19 0 -18 18
-23 62 -15 54 10 60 2 53 -67 -9 -79 3 -103 52 -103 l37 0 -22 -20 c-12 -11
-24 -33 -28 -48 -3 -15 -14 -45 -24 -67 -10 -22 -25 -56 -34 -75 -9 -19 -33
-88 -55 -152 l-38 -117 41 -6 c158 -20 341 -24 484 -11 129 13 185 13 394 1
134 -7 252 -17 263 -20 14 -5 10 1 -12 21 l-32 29 6 86 6 86 32 -1 c40 -1 74
-36 76 -78 1 -15 3 -32 4 -38 1 -5 3 -28 4 -50 1 -38 2 -40 22 -29 13 6 19 7
15 1 -3 -6 -1 -12 6 -14 7 -3 2 -13 -13 -26 -17 -16 -23 -31 -21 -52 3 -29
-12 -42 -20 -18 -3 9 -15 9 -51 -1 -26 -8 -47 -17 -47 -21 0 -4 -17 -14 -37
-23 -21 -9 -45 -20 -53 -26 -47 -28 -156 -61 -208 -62 -43 -1 -51 -3 -32 -9
14 -4 22 -8 19 -9 -4 -1 -31 -6 -60 -11 -69 -13 -446 -40 -569 -41 -52 0 -133
2 -180 5 -113 8 -222 16 -295 22 -159 12 -547 37 -754 48 -45 2 -68 1 -60 -5
8 -5 24 -9 35 -9 17 0 20 -5 16 -25 -2 -14 -8 -25 -13 -25 -5 0 -9 -7 -9 -15
0 -8 -4 -15 -10 -15 -5 0 -10 -7 -10 -17 0 -14 2 -14 20 2 23 21 24 19 9 -40
-8 -31 -15 -42 -25 -38 -16 6 -20 -32 -5 -41 11 -7 2 -46 -10 -46 -5 0 -6 6
-3 13 2 7 1 22 -3 33 -8 20 -8 20 -27 0 -19 -19 -19 -19 0 -13 18 7 18 6 -1
-8 -15 -12 -17 -18 -7 -24 13 -8 6 -41 -9 -41 -4 0 -6 7 -3 15 4 10 0 15 -11
15 -11 0 -15 -5 -12 -14 3 -8 -1 -17 -9 -20 -9 -3 -12 -1 -9 4 3 6 2 10 -4 10
-5 0 -9 -13 -9 -30 1 -17 5 -30 10 -30 4 0 8 -7 8 -15 0 -9 12 -28 28 -43 23
-23 27 -35 27 -82 -1 -86 -17 -240 -26 -240 -4 0 -19 4 -33 10 -19 7 -24 14
-19 26 5 13 3 16 -10 11 -13 -5 -17 -1 -18 16 -1 21 -1 21 -7 2 -4 -11 -17
-21 -31 -23 -20 -2 -22 1 -17 23 7 27 -8 35 -18 10 -7 -20 -36 -8 -36 16 0 10
-6 19 -14 19 -17 0 -15 22 3 43 7 10 10 28 6 49 -3 18 -7 40 -9 49 -1 10 -8
24 -15 33 -8 9 -10 24 -5 38 4 13 8 30 9 38 5 37 18 81 26 86 5 3 9 12 9 20 0
8 9 24 20 36 18 20 20 20 44 4 31 -20 33 -20 33 -2 0 8 -6 12 -13 9 -16 -6
-34 24 -34 60 0 8 -4 7 -11 -3 -13 -18 -9 -5 10 33 8 15 20 27 28 27 12 0 17
12 14 33 0 4 4 7 11 7 6 0 8 3 5 7 -9 8 60 42 86 43 10 0 15 -4 12 -10 -3 -5
-1 -10 4 -10 6 0 11 11 11 25 0 21 -5 25 -28 25 -15 0 -32 4 -38 10 -9 9 -184
-146 -184 -163 0 -4 -11 -20 -25 -35 -14 -15 -42 -51 -63 -80 -32 -47 -37 -62
-38 -115 -2 -51 -5 -61 -18 -59 -9 2 -16 -3 -16 -9 0 -7 -3 -10 -6 -7 -3 4 2
19 12 34 14 21 15 26 4 22 -8 -2 -32 -43 -53 -89 -34 -75 -37 -90 -33 -144 8
-88 41 -177 87 -228 21 -25 39 -50 39 -56 0 -6 4 -11 8 -11 5 0 14 -12 21 -27
11 -27 11 -27 -5 -8 -8 11 -22 29 -29 39 -14 18 -15 18 -50 -8 -20 -16 -41
-38 -47 -50 -8 -19 -5 -28 24 -56 l33 -34 -25 -7 c-14 -4 -37 -7 -51 -8 -17
-1 -30 -9 -37 -26 -10 -21 -8 -27 11 -42 32 -25 42 -53 18 -53 -26 0 -44 -25
-39 -54 4 -18 -1 -27 -18 -34 -22 -11 -41 -48 -30 -60 4 -3 24 4 45 16 44 25
52 18 44 -36 -4 -23 -11 -32 -24 -32 -10 0 -34 -17 -53 -37 -28 -29 -36 -46
-36 -74 0 -20 7 -42 15 -49 19 -16 19 -34 -1 -51 -19 -15 -14 -68 11 -115 8
-16 15 -39 15 -51 0 -13 6 -23 14 -23 18 0 33 -43 17 -48 -6 -2 -19 -11 -30
-20 -15 -13 -17 -22 -10 -40 8 -21 15 -23 51 -20 40 3 43 1 43 -22 0 -19 -5
-25 -20 -23 -13 1 -24 -7 -32 -23 -10 -21 -8 -33 13 -77 14 -29 33 -68 42 -87
18 -37 72 -66 79 -42 5 14 33 16 33 2 0 -5 7 -10 16 -10 8 0 12 5 9 10 -3 6 3
10 15 10 11 0 23 -7 26 -15 7 -18 100 -21 138 -3 22 9 29 8 46 -7 15 -13 20
-14 20 -5 0 11 3 11 12 2 7 -7 25 -12 41 -12 16 0 26 -4 22 -10 -3 -5 1 -10 9
-10 9 0 16 -7 16 -15 0 -8 7 -15 16 -15 14 0 14 -3 4 -15 -11 -13 -11 -18 0
-28 10 -9 13 -9 17 1 8 22 20 12 15 -13 -4 -21 -1 -24 14 -19 16 6 17 5 7 -7
-7 -7 -13 -28 -13 -47 0 -26 -5 -35 -21 -39 -12 -3 -18 -11 -15 -19 3 -7 -5
-20 -17 -29 l-21 -15 26 0 c15 0 29 7 33 18 3 9 5 17 3 17 -2 0 3 7 10 15 7 8
20 24 28 35 13 16 15 17 10 3 -7 -23 10 -23 24 0 9 14 10 12 5 -10 -3 -16 -1
-28 5 -28 5 0 10 5 10 12 0 6 3 8 6 5 4 -4 2 -13 -4 -20 -7 -8 -9 -17 -5 -20
3 -4 1 -7 -5 -7 -7 0 -12 -7 -12 -15 0 -14 -14 -19 -48 -18 -10 1 -10 -2 -1
-13 9 -12 15 -12 27 -2 13 11 14 10 8 -10 -6 -19 -4 -22 18 -22 32 0 39 -13
38 -67 0 -35 4 -47 23 -59 25 -17 97 -13 103 5 5 16 39 13 46 -4 3 -9 14 -15
23 -13 15 2 18 -5 19 -37 3 -116 4 -117 24 -122 11 -3 17 -9 14 -14 -3 -5 0
-9 6 -9 13 0 68 59 76 83 3 10 11 17 17 15 7 -1 31 8 54 20 23 12 48 19 56 16
19 -7 39 -52 27 -59 -17 -11 -11 -43 9 -50 11 -3 29 0 39 6 18 11 24 9 49 -21
15 -19 37 -44 48 -55 11 -11 25 -39 30 -62 l10 -43 43 22 c42 22 43 22 75 3
17 -10 35 -24 39 -30 4 -6 24 -12 44 -13 43 -2 52 -8 36 -24 -15 -15 -16 -72
-2 -63 5 3 10 14 10 24 0 22 28 48 55 51 59 6 95 0 95 -17 0 -10 11 -23 25
-30 31 -14 31 -13 0 23 -14 16 -25 36 -25 44 1 11 4 10 15 -4 8 -11 15 -23 15
-27 0 -11 27 -18 109 -28 82 -10 102 -2 107 45 3 32 35 73 57 74 9 0 17 5 17
10 0 6 5 10 11 10 5 0 7 -4 4 -10 -3 -5 1 -10 9 -10 10 0 13 -6 10 -15 -4 -9
-19 -15 -35 -15 -19 0 -29 -5 -29 -15 0 -23 62 -20 77 4 13 21 70 33 76 17 6
-19 37 15 37 40 0 17 6 24 20 24 11 0 20 -5 20 -10 0 -6 11 -16 25 -22 29 -13
34 -48 8 -48 -15 0 -16 -2 -3 -10 20 -13 73 -13 65 0 -4 6 -10 8 -14 6 -4 -3
-8 1 -8 9 0 17 21 7 59 -29 15 -14 31 -26 36 -26 16 0 21 38 6 44 -22 8 -16
39 11 65 14 13 28 34 31 47 3 13 10 22 15 19 4 -3 13 3 18 14 8 15 7 23 -4 35
-21 21 -19 30 19 84 18 27 36 57 40 69 8 25 51 73 66 73 6 0 8 -10 4 -24 -3
-15 1 -29 12 -40 14 -15 15 -19 3 -27 -11 -6 -11 -13 -3 -26 9 -15 25 -18 103
-17 50 0 91 -3 91 -8 0 -4 5 -8 11 -8 6 0 9 15 7 37 -1 20 2 38 7 40 6 1 11
-12 11 -31 1 -36 28 -74 39 -56 3 5 5 27 4 48 -3 51 34 104 68 96 16 -4 25 -1
29 10 3 9 10 16 15 16 4 0 28 14 53 31 42 28 51 39 47 62 -1 4 6 10 14 13 8 4
15 11 15 18 0 6 11 23 25 38 18 20 25 38 25 69 0 34 3 40 16 35 12 -4 15 -2
10 9 -3 8 -9 22 -12 30 -5 11 1 15 25 15 22 0 35 7 47 25 25 39 53 50 72 31
15 -15 15 -16 -2 -16 -15 0 -16 -3 -6 -15 7 -8 16 -12 21 -9 5 3 14 -7 19 -23
6 -15 23 -36 38 -46 15 -9 42 -28 60 -41 18 -14 38 -27 45 -29 9 -3 9 -9 0
-26 -17 -27 -16 -31 2 -31 8 0 15 -5 15 -11 0 -6 8 -8 18 -5 9 3 33 1 52 -4
25 -7 36 -7 42 3 4 6 3 13 -2 15 -13 5 -13 32 -1 32 5 0 9 22 8 50 -2 42 -5
49 -19 44 -14 -4 -18 1 -18 24 0 17 6 32 15 36 8 3 15 10 15 16 0 6 -5 8 -10
5 -6 -4 -10 10 -10 35 0 22 -6 49 -12 61 -11 17 -10 22 3 32 23 18 31 69 12
82 -13 10 -14 17 -2 48 7 20 20 38 28 40 13 4 13 5 -1 6 -10 0 -18 8 -18 16 0
18 12 19 27 4 13 -13 61 -20 86 -13 20 6 23 30 5 37 -10 4 -10 7 0 15 15 10 1
57 -20 65 -7 3 2 5 20 4 18 0 29 -3 25 -6 -5 -3 -1 -14 9 -23 17 -17 18 -17
18 16 0 46 14 53 44 23 23 -23 26 -24 40 -8 21 24 20 42 -1 34 -16 -6 -16 -5
-4 10 8 10 28 17 47 17 30 0 34 3 35 28 1 15 1 30 0 34 0 3 15 5 34 3 40 -3
56 10 24 20 -29 10 -17 17 15 9 14 -3 23 -11 19 -17 -3 -6 -1 -7 5 -3 17 10
15 26 -3 26 -22 0 -29 27 -12 44 12 12 16 13 20 2 3 -7 16 -12 29 -10 34 4 35
4 12 14 -33 13 -21 56 14 55 16 0 26 5 25 13 -2 7 8 12 28 12 17 0 37 7 45 15
21 20 31 19 39 -4 3 -11 15 -31 26 -46 18 -21 24 -24 36 -13 9 7 21 13 27 14
6 0 16 2 23 2 8 2 10 19 6 58 -5 43 -3 60 8 68 23 18 61 76 50 76 -6 0 -15 -9
-21 -21 -7 -11 -18 -18 -25 -15 -8 3 -16 0 -18 -7 -2 -7 -4 5 -4 25 1 29 5 38
18 38 25 0 41 24 27 38 -7 7 -19 12 -28 12 -8 0 -20 9 -27 19 -11 17 -6 22 40
46 31 16 53 22 55 16 2 -6 10 -11 18 -11 24 0 16 -19 -11 -26 -29 -7 -31 -16
-9 -38 20 -21 33 -20 63 3 14 10 30 17 37 14 7 -3 31 3 54 13 29 13 39 22 35
34 -3 9 5 32 18 51 12 19 29 49 36 66 7 18 18 33 23 33 18 0 68 41 62 51 -3 5
2 12 10 15 18 7 21 49 7 87 -8 19 -6 27 5 31 18 7 18 31 -2 61 -15 24 -15 24
10 12 14 -7 26 -16 26 -20 0 -5 4 -5 10 -2 6 4 5 11 -3 19 -6 8 -14 12 -17 11
-3 -2 -6 6 -6 17 0 19 1 19 18 -2 10 -12 18 -17 18 -11 0 6 7 11 15 11 8 0 15
-4 15 -10 0 -5 -6 -10 -12 -10 -9 0 -8 -3 2 -10 16 -10 36 13 25 30 -6 10 13
14 46 11 9 -1 16 5 16 14 0 9 -6 14 -13 11 -7 -3 -15 0 -18 7 -3 9 -7 9 -13
-1 -5 -7 -19 -14 -31 -17 -12 -2 -27 -7 -32 -10 -6 -3 -10 -1 -10 5 0 6 13 13
30 16 25 5 27 8 15 20 -7 8 -20 14 -28 14 -8 0 -18 10 -24 22 -8 19 -10 19
-16 5 -4 -11 1 -20 13 -27 11 -6 20 -15 20 -21 0 -6 -5 -7 -11 -3 -6 3 -16 0
-21 -7 -7 -10 -7 -7 -3 9 5 16 2 22 -9 22 -9 0 -16 5 -16 10 0 6 5 10 11 10 5
0 7 5 4 10 -4 6 -11 7 -17 4 -6 -4 -8 -2 -5 3 11 17 58 12 70 -8 7 -11 23 -19
37 -18 15 0 19 3 10 6 -8 3 -22 14 -33 23 -17 17 -17 18 -1 35 13 13 14 19 4
25 -10 6 -10 9 1 13 8 3 3 6 -11 7 -23 0 -23 2 -7 11 14 8 23 7 38 -7 17 -15
24 -16 39 -6 28 17 32 15 18 -8 -7 -11 -22 -20 -33 -20 -22 0 -32 -34 -14 -45
5 -4 9 3 9 13 0 16 5 19 22 14 14 -3 19 -1 14 6 -3 6 3 20 16 31 24 23 23 25
-9 35 -15 5 -23 3 -23 -4 0 -6 -4 -9 -9 -6 -5 4 -12 0 -15 -6 -3 -7 -3 -3 -1
8 5 20 2 22 -47 22 -30 -1 -45 -4 -35 -7 17 -6 18 -8 2 -21 -12 -10 -13 -15
-3 -21 7 -4 9 -11 5 -15 -3 -4 -14 -1 -23 7 -14 12 -14 14 2 26 10 7 12 13 6
13 -7 0 -12 7 -12 15 0 8 -6 15 -12 15 -9 0 -8 4 2 10 8 5 10 10 5 10 -7 0 -9
15 -7 36 4 29 8 35 23 31 11 -3 22 -1 25 4 3 5 -9 9 -26 9 -17 0 -29 4 -25 10
3 5 12 7 20 3 8 -3 15 0 15 6 0 6 -5 10 -11 9 -14 -4 -35 29 -25 39 4 4 14 -1
22 -11 12 -17 14 -18 14 -3 0 9 -4 17 -10 17 -5 0 -10 7 -10 15 0 8 -5 15 -11
15 -5 0 -7 -6 -4 -12 4 -7 -1 -4 -10 7 -13 16 -17 17 -24 6 -7 -10 -13 -11
-27 -1 -16 10 -16 11 -1 6 9 -3 17 -2 17 3 0 12 39 21 46 10 3 -5 13 -5 24 1
21 11 50 -13 29 -25 -8 -6 -7 -10 2 -16 9 -6 18 -3 25 6 10 14 12 14 18 -1 4
-11 -2 -19 -24 -27 -28 -11 -44 -47 -20 -47 6 0 10 5 10 10 0 6 9 10 20 10 11
0 20 5 20 10 0 6 8 10 18 10 10 0 19 -7 19 -15 0 -10 -6 -13 -19 -9 -13 4 -18
0 -18 -12 0 -10 3 -14 7 -11 3 4 12 -1 20 -11 13 -15 14 -15 9 0 -2 9 2 22 10
29 20 16 30 3 13 -18 -9 -11 -10 -14 -1 -9 6 4 12 2 12 -3 0 -6 5 -11 11 -11
5 0 8 4 5 8 -2 4 -1 14 5 22 7 12 9 11 9 -5 0 -15 7 -20 25 -20 14 0 25 3 25
8 0 4 -9 7 -20 7 -11 0 -20 5 -20 11 0 5 5 7 11 3 7 -4 10 -1 7 7 -3 8 -12 13
-22 11 -9 -2 -16 1 -16 6 0 5 -9 12 -21 15 -12 3 -18 10 -14 16 8 14 -1 14
-25 1 -13 -7 -19 -6 -24 5 -4 11 2 15 19 15 14 0 25 4 25 8 0 13 43 9 58 -5 7
-7 23 -13 35 -12 21 1 21 1 2 7 -11 4 -21 13 -23 21 -3 12 -1 12 14 0 13 -11
18 -11 21 -1 3 6 11 12 18 12 7 0 16 -6 18 -12 3 -8 6 -6 6 4 1 12 7 16 19 12
13 -4 12 -2 -3 7 -19 13 -19 14 9 19 27 5 28 6 13 21 -18 19 -13 31 10 22 12
-5 11 -1 -3 16 l-19 21 -7 -21 c-6 -16 -14 -20 -33 -17 -16 4 -25 0 -28 -11
-4 -13 -5 -13 -6 2 0 9 -6 17 -12 17 -5 0 -7 -4 -4 -10 3 -5 -1 -10 -9 -10 -9
0 -16 8 -17 18 0 10 -3 12 -6 4 -2 -6 -9 -9 -14 -6 -14 8 -61 -5 -54 -15 6
-10 -18 -21 -47 -21 -13 0 -18 5 -15 14 6 14 -10 36 -26 36 -5 0 -4 -7 3 -15
6 -8 9 -18 6 -24 -3 -5 6 -14 21 -20 26 -9 25 -10 -15 -9 -27 1 -47 8 -52 17
-8 14 -9 14 -10 -1 0 -11 -8 -18 -20 -18 -23 0 -26 10 -7 29 10 10 8 16 -9 30
-16 12 -20 25 -17 43 3 14 0 29 -6 32 -7 5 -11 -2 -11 -16 -1 -22 -1 -22 -15
-4 -8 11 -15 28 -15 38 0 10 -4 18 -10 18 -5 0 -10 -7 -10 -15 0 -8 -4 -15 -8
-15 -16 0 -21 13 -12 30 7 13 3 23 -15 40 -13 12 -29 19 -35 15 -6 -4 -17 1
-25 11 -7 11 -17 16 -20 12 -4 -4 -14 -1 -22 7 -8 9 -33 15 -59 15 l-44 0 6
63 c7 72 22 129 38 139 6 4 47 8 91 8 44 0 86 4 93 8 16 11 41 208 35 287 -6
83 -9 90 -29 71 -8 -9 -12 -21 -8 -27 4 -8 3 -9 -5 -5 -6 4 -22 -5 -37 -23
-14 -17 -30 -31 -36 -31 -6 0 -5 6 2 15 17 20 5 32 -15 15 -18 -15 -20 1 -3
18 10 10 5 11 -22 7 -27 -4 -30 -3 -15 4 19 9 19 10 -2 10 -13 1 -23 -4 -23
-10 0 -7 -10 -9 -24 -5 -14 3 -28 2 -31 -4 -3 -5 -16 -15 -28 -21 -24 -12 13
24 71 68 17 14 32 32 32 39 0 8 6 14 13 15 6 1 -6 5 -28 10 -37 9 -44 7 -98
-31 -49 -34 -67 -40 -110 -41 -29 0 -44 -3 -35 -7 10 -4 -80 -6 -200 -4 -119
2 -221 7 -226 12 -6 6 -5 19 2 35 10 21 9 25 -6 26 -9 1 -3 4 13 8 22 4 31 13
33 31 3 19 1 22 -10 14 -8 -7 -111 -12 -270 -13 -255 -2 -258 -2 -258 18 0 21
3 21 284 21 240 0 285 2 296 15 11 13 7 15 -26 16 -117 1 -295 -2 -416 -7
l-137 -7 9 34 c6 19 10 65 10 104 -1 61 -4 75 -29 108 l-29 37 -18 -27 c-11
-17 -19 -23 -22 -15 -2 7 5 21 17 31 21 19 28 41 12 41 -5 0 -16 -10 -24 -22
l-16 -23 4 22 c2 13 0 25 -6 28 -5 4 -9 1 -9 -5 0 -6 -7 -18 -15 -27 -14 -14
-15 -13 -9 11 5 20 2 26 -10 26 -10 0 -16 -9 -17 -22 0 -22 -1 -22 -9 -3 -13
30 -12 35 7 35 22 0 14 6 -20 14 -25 6 -26 5 -16 -12 13 -20 5 -72 -11 -72 -6
0 -6 10 0 26 17 43 -13 64 -30 22 -8 -21 -9 -19 -11 12 -1 19 -1 40 1 45 1 6
-3 6 -9 0 -6 -6 -12 -30 -13 -53 -1 -23 -5 -42 -9 -42 -4 0 -6 21 -4 48 1 26
1 50 -2 55 -5 8 -27 -11 -36 -33 -4 -8 -5 11 -2 42 4 63 22 98 60 118 14 7 25
17 25 22 0 4 18 8 41 8 45 0 139 -46 139 -67 0 -7 6 -13 13 -13 28 0 42 -89
16 -106 -5 -3 -9 -16 -9 -28 0 -20 6 -24 46 -30 90 -12 197 0 231 26 20 16 50
82 63 139 10 46 9 64 -5 119 -9 35 -25 114 -35 175 -36 209 -56 289 -83 330
-66 101 -79 116 -128 142 -28 15 -63 35 -78 43 -52 28 -255 120 -268 120 -6 0
-32 32 -57 70 -25 39 -49 70 -53 69 -5 0 -62 -29 -128 -63z m-551 -803 c2 -10
8 -53 12 -96 3 -42 10 -80 15 -83 25 -15 -9 -19 -98 -11 -78 7 -202 5 -300 -5
-6 -1 -8 -8 -5 -17 4 -10 7 -11 10 -3 6 19 22 14 22 -8 0 -11 -3 -19 -7 -19
-21 3 -32 -3 -36 -18 -3 -13 -5 -11 -6 6 0 13 -4 21 -8 18 -11 -12 -13 -61 -3
-96 11 -42 5 -54 -9 -17 -6 14 -17 26 -26 26 -10 0 -15 9 -14 28 0 15 3 21 6
15 7 -20 23 -15 23 6 0 34 -10 49 -31 44 -10 -3 -19 0 -19 6 0 6 -8 11 -17 11
-12 1 -8 6 12 17 17 9 41 24 54 34 13 11 38 19 55 19 17 0 42 6 56 13 14 7 52
24 85 37 62 25 171 86 181 101 9 16 42 10 48 -8z m1458 -752 c11 -11 9 -12
-12 -6 l-25 7 28 -29 c15 -16 27 -37 27 -46 0 -15 -3 -16 -22 -6 -19 9 -21 9
-10 -2 17 -19 15 -29 -7 -29 -11 0 -23 -5 -26 -11 -5 -7 -15 -5 -31 5 -28 19
-44 20 -44 4 0 -9 -25 -13 -90 -14 -50 -1 -90 3 -90 7 0 5 5 9 10 9 23 0 8 18
-22 26 -17 5 -33 16 -36 24 -4 12 -2 13 9 3 7 -7 20 -13 29 -13 10 0 5 9 -15
25 -25 21 -28 26 -15 35 13 8 13 10 -2 10 -10 0 -18 4 -18 9 0 5 79 8 175 7
131 -1 178 -5 187 -15z m264 -318 c-3 -10 -17 -56 -31 -102 -14 -47 -31 -88
-38 -93 -14 -9 -137 -11 -137 -2 0 4 14 51 30 105 34 109 27 103 138 107 37 2
43 -1 38 -15z m-1520 -615 c-2 -26 -50 -113 -76 -138 -14 -13 -43 -66 -54 -98
-7 -21 -19 -37 -26 -37 -7 0 -16 -7 -20 -15 -4 -8 -20 -41 -35 -72 -15 -33
-34 -59 -44 -60 -9 -1 -23 -2 -31 -3 -35 -4 -86 -18 -98 -28 -7 -6 -23 -11
-35 -13 -127 -12 -232 -44 -210 -64 3 -3 8 1 10 8 5 14 63 17 63 2 0 -5 -12
-12 -27 -16 -16 -3 -38 -9 -49 -14 -12 -5 -31 -6 -43 -3 -12 3 -21 1 -21 -6 0
-6 -11 -11 -25 -11 -23 0 -24 2 -15 20 7 13 7 20 1 20 -6 0 -14 -12 -17 -27
-7 -25 -8 -25 -20 -8 -8 11 -14 14 -14 8 0 -6 -13 -16 -30 -22 -39 -13 -38
-18 3 -13 17 2 46 -4 62 -12 l30 -16 -27 0 c-15 0 -31 -6 -35 -14 -4 -8 -19
-16 -33 -18 -14 -2 -24 -9 -23 -16 4 -15 -2 -15 -30 -1 -21 12 -21 12 -3 -15
19 -30 17 -46 -4 -21 -7 8 -20 15 -29 16 -10 0 -11 2 -3 6 17 7 15 33 -4 33
-8 0 -13 -4 -10 -8 3 -4 -8 -13 -25 -19 -23 -9 -29 -9 -29 2 0 14 -40 9 -50
-6 -3 -5 -16 -6 -28 -3 -30 9 -14 36 38 63 44 23 70 27 70 11 0 -14 37 -13 46
2 5 8 0 9 -14 6 -27 -7 -27 -7 -3 21 11 13 17 30 14 39 -5 12 -2 14 13 8 10
-5 28 -10 39 -13 19 -4 19 -4 2 10 -14 11 -15 16 -5 20 7 3 -1 3 -18 0 -26 -4
-32 -1 -37 18 -5 20 -8 21 -23 8 -15 -12 -16 -11 -10 21 10 50 27 90 38 90 23
0 38 29 28 55 -7 18 -7 24 1 20 14 -9 52 32 44 46 -4 6 2 13 14 16 12 3 21 9
21 14 0 4 16 5 35 2 28 -5 35 -2 35 11 0 10 5 14 10 11 6 -3 13 1 16 9 9 24
24 19 24 -6 0 -13 3 -18 8 -12 4 6 21 14 37 18 17 4 53 17 80 30 28 13 91 38
140 56 99 36 134 58 113 72 -8 5 -1 6 17 2 23 -4 26 -3 15 5 -12 9 -11 11 7
11 16 0 21 -4 17 -15 -5 -12 2 -11 37 5 54 24 70 25 62 3 -4 -11 -3 -14 5 -9
7 4 12 14 12 21 0 8 20 21 48 29 73 23 81 21 78 -16z m2199 -99 c33 -63 45
-158 45 -371 0 -118 -4 -209 -9 -213 -5 -3 -17 -30 -26 -60 -8 -30 -26 -67
-40 -82 l-24 -28 -21 21 c-32 32 -55 159 -53 302 1 53 -2 62 -16 58 -9 -3 -34
-8 -56 -12 -22 -4 -45 -10 -51 -15 -18 -14 -74 -6 -71 11 1 9 -4 14 -13 12
-11 -3 -10 1 4 16 16 19 70 40 139 56 28 7 57 -10 57 -34 0 -7 6 -6 15 4 17
17 20 42 5 51 -11 7 -3 163 10 180 4 6 10 30 14 54 9 60 22 81 51 81 17 0 29
-9 40 -31z m-3294 -232 c-14 -18 -5 -45 16 -49 11 -2 7 -8 -13 -18 -16 -8 -31
-16 -33 -17 -2 -1 2 -9 9 -18 11 -13 10 -14 -4 -9 -18 7 -20 0 -6 -26 7 -14 6
-23 -5 -34 -8 -8 -12 -21 -9 -29 3 -9 -4 -25 -16 -37 -11 -11 -18 -25 -15 -30
9 -14 -5 -51 -16 -45 -5 4 -9 13 -9 22 0 9 -7 24 -15 33 -13 14 -13 19 0 44 8
16 15 37 15 47 0 10 11 39 25 65 14 26 25 52 25 57 0 14 52 68 58 62 3 -2 0
-11 -7 -18z m2785 -92 c10 -8 27 -15 37 -15 15 0 17 -5 12 -29 -6 -28 -5 -28
33 -26 37 2 39 1 39 -29 0 -17 -2 -23 -4 -13 -5 21 -28 18 -28 -4 0 -21 -43
-59 -66 -59 -12 0 -23 8 -26 20 -7 26 -23 15 -23 -16 0 -15 -4 -23 -10 -19 -6
4 -18 1 -26 -6 -8 -6 -18 -9 -22 -5 -4 4 4 17 17 27 22 18 24 27 22 87 -1 37
-4 75 -7 85 -7 22 24 23 52 2z m-1382 -416 c-19 -21 -19 -22 4 -15 35 11 26
-9 -14 -27 -20 -10 -56 -36 -80 -59 -35 -33 -44 -48 -44 -75 0 -29 5 -36 33
-48 41 -19 62 -35 70 -57 5 -14 1 -18 -18 -18 -13 0 -27 -5 -31 -11 -3 -6 -19
-9 -34 -5 -25 4 -28 2 -34 -26 -3 -16 -3 -34 0 -39 3 -5 1 -9 -4 -9 -5 0 -15
24 -22 53 -11 48 -11 57 5 81 13 19 16 37 11 65 -5 30 -2 42 14 56 11 10 20
27 20 38 0 30 37 75 78 94 36 17 52 30 52 46 0 4 -5 7 -11 7 -5 0 -7 -4 -4
-10 3 -5 -4 -10 -16 -10 -19 0 -20 2 -8 18 25 32 34 32 43 2 7 -24 5 -35 -10
-51z m702 23 c39 -25 61 -126 75 -335 11 -171 0 -420 -26 -565 -28 -158 -71
-226 -96 -152 -6 16 -15 30 -19 30 -14 0 -39 191 -39 308 l-1 83 29 5 c33 7
41 25 41 95 0 51 -17 75 -50 66 -18 -5 -20 0 -20 56 0 131 40 368 68 400 17
19 22 20 38 9z m-232 -306 c-5 -19 1 -27 38 -49 38 -23 44 -24 50 -9 5 13 7
12 7 -6 1 -12 -6 -34 -15 -48 -15 -23 -15 -26 1 -44 13 -14 16 -28 11 -53 -5
-26 -2 -38 13 -51 18 -17 18 -56 0 -56 -5 0 -9 -9 -9 -19 0 -30 -18 -35 -22
-5 l-3 25 -23 -21 c-26 -24 -27 -24 -36 6 -7 22 5 39 43 66 10 7 20 30 24 50
5 33 3 38 -31 61 -20 14 -49 31 -64 38 -33 15 -35 32 -7 60 26 26 20 33 -17
19 l-29 -11 34 35 c19 20 36 36 38 36 2 0 1 -11 -3 -24z"/>
<path d="M3853 1933 c-12 -29 -13 -45 -4 -72 31 -107 45 -239 30 -293 -8 -31
-8 -43 1 -48 9 -5 10 -31 6 -88 -6 -83 6 -120 18 -57 6 31 9 34 27 24 19 -10
20 -8 17 53 -2 48 -7 63 -18 63 -11 0 -14 10 -13 35 1 19 -1 27 -3 18 -13 -43
-19 -9 -18 100 1 141 1 145 18 107 l13 -30 7 24 c9 25 -8 130 -26 168 -18 38
-38 36 -55 -4z"/>
<path d="M3497 4312 c-10 -10 -17 -26 -17 -34 0 -18 27 -44 37 -35 3 3 18 0
34 -8 15 -8 35 -12 43 -9 9 4 22 1 29 -4 16 -13 78 -19 94 -9 9 6 9 16 1 38
-8 24 -13 27 -25 18 -11 -10 -15 -8 -20 9 -6 26 -28 29 -37 6 -8 -20 -26 -9
-26 17 0 22 -20 25 -39 7 -10 -11 -14 -10 -22 5 -13 22 -32 22 -52 -1z"/>
<path d="M4445 3873 c-53 -5 -93 -54 -42 -52 21 0 21 1 2 9 -12 5 63 9 190 10
116 1 228 2 249 3 44 2 59 21 24 31 -24 6 -354 5 -423 -1z"/>
<path d="M4349 3789 c-5 -10 -6 -19 -2 -21 5 -2 103 -3 220 -3 205 0 213 1
234 22 l22 21 -232 -1 c-210 -1 -233 -3 -242 -18z"/>
<path d="M1196 3468 c-88 -10 -269 -76 -211 -78 17 0 69 -3 118 -7 55 -3 87
-2 87 5 0 5 16 13 35 16 21 4 33 11 29 18 -4 6 12 9 50 6 31 -1 56 0 56 4 0 4
19 5 43 2 31 -3 48 0 64 13 22 18 21 18 -57 16 -43 -1 -92 1 -107 6 -15 4 -63
3 -107 -1z"/>
<path d="M1547 3464 c-3 -3 -46 -25 -96 -49 -75 -35 -87 -44 -69 -49 38 -10
72 -6 92 9 11 8 26 15 33 15 8 0 23 8 34 19 15 14 37 19 85 20 66 1 114 -6
114 -18 0 -3 -18 -17 -40 -31 -21 -13 -38 -26 -36 -27 4 -4 329 -27 606 -44
102 -6 204 -8 227 -5 40 5 185 47 228 66 19 8 19 9 -3 9 -12 1 -33 8 -45 16
-17 11 -31 12 -62 4 -22 -5 -76 -12 -120 -15 -44 -2 -102 -10 -129 -16 -45
-10 -131 -8 -321 8 -271 21 -270 21 -308 47 -42 29 -174 57 -190 41z"/>
<path d="M2765 3349 c-60 -20 -132 -41 -160 -45 l-50 -8 50 -7 c28 -4 120 -10
206 -14 139 -7 163 -6 210 11 30 10 58 22 64 26 5 4 18 8 30 8 26 0 68 29 45
30 -8 1 -24 3 -35 5 -11 1 -61 6 -111 9 -51 3 -102 9 -115 14 -17 6 -55 -2
-134 -29z"/>
<path d="M1224 3308 c-38 -15 -81 -33 -96 -39 -16 -6 -28 -14 -28 -18 0 -4 87
-13 193 -20 105 -6 204 -14 219 -16 21 -3 32 2 48 25 13 18 30 30 43 30 19 0
18 -3 -10 -20 -18 -11 -33 -24 -33 -30 0 -6 33 -11 78 -11 42 -1 86 -3 97 -4
68 -9 328 -23 352 -19 45 8 206 55 223 64 10 6 -6 9 -45 9 -65 -1 -515 30
-524 36 -4 2 -89 6 -191 10 -102 4 -189 11 -195 15 -25 19 -67 15 -131 -12z"/>
<path d="M2415 3243 c-11 -3 -54 -16 -95 -30 -41 -14 -95 -29 -120 -33 l-45
-7 57 -2 c31 0 137 5 235 13 98 8 217 18 266 21 48 4 87 10 87 14 0 5 -55 11
-122 15 -68 4 -150 9 -183 11 -33 2 -69 1 -80 -2z"/>
</g>
</svg>
